<svg width="166" height="48" viewBox="0 0 166 48" fill="none" xmlns="http://www.w3.org/2000/svg">
<path d="M165.077 42.425C165.077 44.9806 162.964 47.0507 160.35 47.0507H5.65512C3.04253 47.0507 0.921875 44.9806 0.921875 42.425V5.53653C0.921875 2.98212 3.04253 0.904785 5.65512 0.904785H160.349C162.964 0.904785 165.076 2.98212 165.076 5.53653L165.077 42.425Z" fill="#2D2D2D"/>
<path d="M159.852 0.960621C162.698 0.960621 165.015 3.21903 165.015 5.99446V41.9611C165.015 44.7366 162.698 46.995 159.852 46.995H6.14815C3.30156 46.995 0.98524 44.7366 0.98524 41.9611V5.99446C0.98524 3.21903 3.30156 0.960621 6.14815 0.960621H159.852ZM159.852 1.391e-05H6.14815C2.7682 1.391e-05 0 2.69901 0 5.99446V41.9611C0 45.2566 2.7682 47.9556 6.14815 47.9556H159.852C163.232 47.9556 166 45.2566 166 41.9611V5.99446C166 2.69901 163.232 1.391e-05 159.852 1.391e-05Z" fill="#A6A6A6"/>
<path d="M37.0455 23.7184C37.0098 19.8544 40.2905 17.9746 40.4405 17.8871C38.5825 15.2459 35.7027 14.885 34.6908 14.8563C32.2721 14.6081 29.9259 16.2674 28.6938 16.2674C27.4372 16.2674 25.5398 14.8802 23.495 14.921C20.8636 14.9606 18.4018 16.446 17.0517 18.7527C14.2654 23.4559 16.3434 30.3675 19.013 34.1692C20.3484 36.031 21.9088 38.1099 23.9512 38.0368C25.9493 37.9565 26.6957 36.7947 29.107 36.7947C31.4962 36.7947 32.1971 38.0368 34.2801 37.99C36.4245 37.9565 37.7747 36.1198 39.0633 34.2411C40.6065 32.1071 41.2262 30.0054 41.2508 29.8975C41.2004 29.8807 37.0861 28.3498 37.0455 23.7184Z" fill="white"/>
<path d="M33.1107 12.3554C34.1854 11.045 34.9207 9.26225 34.7166 7.45312C33.1611 7.52026 31.2158 8.50215 30.0956 9.78377C29.1045 10.9131 28.2192 12.7642 28.4479 14.505C30.1952 14.6321 31.9893 13.6454 33.1107 12.3554Z" fill="white"/>
<path d="M65.9633 37.77H63.1708L61.6412 33.0835H56.3243L54.8671 37.77H52.1484L57.4162 21.8152H60.6698L65.9633 37.77ZM61.1801 31.1174L59.7967 26.9512C59.6504 26.5256 59.3762 25.5233 58.9717 23.9456H58.9225C58.7614 24.6242 58.5019 25.6265 58.1453 26.9512L56.7866 31.1174H61.1801Z" fill="white"/>
<path d="M79.5095 31.8768C79.5095 33.8334 78.9672 35.3799 77.8827 36.5153C76.9113 37.5259 75.705 38.0307 74.2651 38.0307C72.7109 38.0307 71.5944 37.4864 70.9144 36.3978H70.8652V42.4582H68.2436V30.0533C68.2436 28.8232 68.2104 27.5608 68.1465 26.266H70.452L70.5984 28.0895H70.6476C71.5218 26.7156 72.8486 26.0298 74.6291 26.0298C76.021 26.0298 77.183 26.5657 78.1126 27.6387C79.0447 28.7129 79.5095 30.1252 79.5095 31.8768ZM76.8387 31.9703C76.8387 30.8505 76.5805 29.9274 76.0616 29.2008C75.4948 28.4431 74.7336 28.0643 73.7794 28.0643C73.1326 28.0643 72.5449 28.2753 72.0198 28.6913C71.4935 29.1109 71.1492 29.6588 70.9882 30.3374C70.907 30.6539 70.8664 30.9129 70.8664 31.1167V33.0349C70.8664 33.8717 71.1296 34.5779 71.6558 35.1545C72.1821 35.7312 72.8658 36.0189 73.7069 36.0189C74.6943 36.0189 75.4628 35.6473 76.0124 34.9064C76.5633 34.1642 76.8387 33.186 76.8387 31.9703Z" fill="white"/>
<path d="M93.0805 31.8765C93.0805 33.8331 92.5383 35.3797 91.4525 36.515C90.4823 37.5257 89.2761 38.0304 87.8362 38.0304C86.2819 38.0304 85.1654 37.4861 84.4866 36.3975H84.4375V42.4579H81.8159V30.053C81.8159 28.823 81.7827 27.5605 81.7188 26.2657H84.0243L84.1706 28.0892H84.2198C85.0929 26.7153 86.4196 26.0295 88.2014 26.0295C89.5921 26.0295 90.7541 26.5654 91.6861 27.6384C92.6145 28.7127 93.0805 30.1249 93.0805 31.8765ZM90.4098 31.97C90.4098 30.8503 90.1503 29.9271 89.6314 29.2006C89.0646 28.4429 88.3059 28.0641 87.3505 28.0641C86.7024 28.0641 86.1159 28.2751 85.5896 28.6911C85.0633 29.1107 84.7203 29.6586 84.5592 30.3371C84.4793 30.6537 84.4375 30.9126 84.4375 31.1164V33.0346C84.4375 33.8715 84.7006 34.5776 85.2244 35.1543C85.7507 35.7298 86.4344 36.0187 87.2779 36.0187C88.2653 36.0187 89.0338 35.647 89.5835 34.9061C90.1343 34.164 90.4098 33.1857 90.4098 31.97Z" fill="white"/>
<path d="M108.255 33.2959C108.255 34.653 107.772 35.7572 106.802 36.6096C105.736 37.5412 104.252 38.0063 102.345 38.0063C100.584 38.0063 99.1721 37.6754 98.1035 37.0124L98.711 34.882C99.8619 35.5606 101.125 35.9011 102.501 35.9011C103.488 35.9011 104.257 35.6829 104.809 35.2489C105.358 34.8149 105.633 34.2322 105.633 33.5057C105.633 32.8583 105.406 32.3128 104.953 31.8704C104.501 31.428 103.748 31.0168 102.695 30.6368C99.8299 29.5949 98.3986 28.0687 98.3986 26.0618C98.3986 24.7502 98.9003 23.6748 99.9049 22.838C100.906 22 102.241 21.5815 103.911 21.5815C105.4 21.5815 106.637 21.8345 107.625 22.3392L106.969 24.4229C106.047 23.9338 105.004 23.6892 103.837 23.6892C102.915 23.6892 102.194 23.911 101.678 24.3522C101.242 24.7466 101.023 25.2274 101.023 25.7968C101.023 26.4275 101.272 26.949 101.774 27.359C102.21 27.7378 103.004 28.1479 104.155 28.5902C105.562 29.1429 106.597 29.7891 107.262 30.5301C107.925 31.2686 108.255 32.1929 108.255 33.2959Z" fill="white"/>
<path d="M116.922 28.1837H114.033V33.7693C114.033 35.19 114.542 35.8997 115.562 35.8997C116.031 35.8997 116.419 35.8602 116.727 35.781L116.799 37.7221C116.283 37.9103 115.603 38.005 114.761 38.005C113.725 38.005 112.916 37.6969 112.332 37.0818C111.75 36.4656 111.458 35.4322 111.458 33.9803V28.1813H109.736V26.2631H111.458V24.1566L114.033 23.3989V26.2631H116.922V28.1837Z" fill="white"/>
<path d="M129.96 31.9231C129.96 33.6914 129.441 35.1433 128.405 36.2786C127.32 37.4475 125.878 38.0302 124.082 38.0302C122.351 38.0302 120.972 37.4703 119.944 36.3506C118.916 35.2308 118.402 33.8173 118.402 32.1137C118.402 30.3309 118.931 28.8707 119.992 27.7353C121.051 26.5988 122.48 26.0305 124.276 26.0305C126.008 26.0305 127.401 26.5904 128.452 27.7114C129.458 28.7988 129.96 30.2027 129.96 31.9231ZM127.24 32.0058C127.24 30.9448 127.007 30.0348 126.536 29.2759C125.987 28.3576 125.201 27.8996 124.183 27.8996C123.129 27.8996 122.329 28.3588 121.779 29.2759C121.308 30.036 121.076 30.9603 121.076 32.0537C121.076 33.1148 121.308 34.0247 121.779 34.7824C122.346 35.7008 123.138 36.1587 124.159 36.1587C125.16 36.1587 125.946 35.6912 126.513 34.7584C126.996 33.9851 127.24 33.0656 127.24 32.0058Z" fill="white"/>
<path d="M138.483 28.5139C138.223 28.4671 137.947 28.4431 137.657 28.4431C136.734 28.4431 136.021 28.7824 135.519 29.4622C135.083 30.0616 134.864 30.8193 134.864 31.7341V37.7705H132.244L132.268 29.889C132.268 28.563 132.235 27.3558 132.17 26.2672H134.453L134.549 28.4683H134.622C134.898 27.7118 135.335 27.1028 135.933 26.646C136.517 26.2348 137.147 26.0298 137.827 26.0298C138.07 26.0298 138.289 26.0466 138.483 26.0765V28.5139Z" fill="white"/>
<path d="M150.207 31.4735C150.207 31.9315 150.176 32.3176 150.111 32.6329H142.246C142.277 33.7694 142.657 34.6386 143.387 35.2381C144.05 35.774 144.907 36.0425 145.96 36.0425C147.124 36.0425 148.187 35.8615 149.142 35.4982L149.553 37.2726C148.436 37.7473 147.118 37.9835 145.597 37.9835C143.767 37.9835 142.331 37.4584 141.286 36.4094C140.243 35.3603 139.721 33.9516 139.721 32.1845C139.721 30.4497 140.206 29.005 141.179 27.8529C142.197 26.6228 143.573 26.0078 145.304 26.0078C147.005 26.0078 148.292 26.6228 149.167 27.8529C149.859 28.83 150.207 30.0385 150.207 31.4735ZM147.707 30.8106C147.724 30.0529 147.553 29.3983 147.198 28.8456C146.744 28.1346 146.047 27.7798 145.109 27.7798C144.252 27.7798 143.555 28.1262 143.022 28.8216C142.586 29.3743 142.326 30.0373 142.246 30.8094H147.707V30.8106Z" fill="white"/>
<path d="M60.3131 12.0001C60.3131 13.4112 59.8791 14.4734 59.0122 15.1867C58.2092 15.8449 57.0681 16.1746 55.5901 16.1746C54.8572 16.1746 54.2301 16.1435 53.7051 16.0811V8.37106C54.39 8.26316 55.1278 8.20801 55.9246 8.20801C57.3325 8.20801 58.3937 8.50653 59.1093 9.10358C59.911 9.77855 60.3131 10.7437 60.3131 12.0001ZM58.9544 12.0349C58.9544 11.1201 58.706 10.4188 58.2092 9.92961C57.7124 9.44166 56.987 9.19709 56.0315 9.19709C55.6258 9.19709 55.2802 9.22347 54.9937 9.27862V15.14C55.1524 15.164 55.4425 15.1748 55.8643 15.1748C56.8505 15.1748 57.6116 14.9074 58.1477 14.3727C58.6839 13.838 58.9544 13.0587 58.9544 12.0349Z" fill="white"/>
<path d="M67.519 13.2323C67.519 14.1014 67.2645 14.8136 66.7554 15.3723C66.2217 15.9465 65.5147 16.2331 64.6318 16.2331C63.7809 16.2331 63.1034 15.9585 62.598 15.407C62.0939 14.8567 61.8418 14.1626 61.8418 13.3258C61.8418 12.4506 62.1012 11.7324 62.6226 11.175C63.144 10.6175 63.8449 10.3381 64.7277 10.3381C65.5786 10.3381 66.2623 10.6127 66.78 11.163C67.2718 11.6977 67.519 12.3882 67.519 13.2323ZM66.1824 13.273C66.1824 12.7515 66.0668 12.3043 65.8369 11.9315C65.5663 11.4807 65.1815 11.2553 64.681 11.2553C64.1633 11.2553 63.7699 11.4807 63.4993 11.9315C63.2682 12.3043 63.1538 12.7587 63.1538 13.2958C63.1538 13.8173 63.2694 14.2645 63.4993 14.6373C63.7785 15.0881 64.167 15.3135 64.6687 15.3135C65.1606 15.3135 65.5467 15.0845 65.8246 14.6254C66.0631 14.2453 66.1824 13.7945 66.1824 13.273Z" fill="white"/>
<path d="M77.1777 10.4536L75.364 16.1052H74.1835L73.4322 13.651C73.2416 13.0384 73.0867 12.4294 72.9662 11.8251H72.9428C72.8309 12.4462 72.676 13.054 72.4768 13.651L71.6788 16.1052H70.4848L68.7793 10.4536H70.1036L70.759 13.1403C70.9176 13.7757 71.048 14.3812 71.1525 14.9542H71.1758C71.2718 14.4819 71.4304 13.88 71.6542 13.1523L72.4768 10.4548H73.5269L74.3151 13.0948C74.5057 13.7386 74.6606 14.3584 74.7799 14.9554H74.8155C74.9028 14.374 75.0344 13.7542 75.209 13.0948L75.9124 10.4548H77.1777V10.4536Z" fill="white"/>
<path d="M83.8582 16.105H82.5695V12.868C82.5695 11.8705 82.1809 11.3718 81.4014 11.3718C81.0189 11.3718 80.7103 11.5084 80.4705 11.783C80.2332 12.0575 80.1127 12.3812 80.1127 12.7517V16.1038H78.8241V12.0683C78.8241 11.572 78.8081 11.0337 78.7773 10.451H79.9098L79.9701 11.3346H80.0057C80.1558 11.06 80.3795 10.8335 80.6734 10.6524C81.0226 10.4414 81.4137 10.3347 81.8416 10.3347C82.3826 10.3347 82.8326 10.505 83.1905 10.8466C83.6356 11.2651 83.8582 11.8897 83.8582 12.7193V16.105Z" fill="white"/>
<path d="M87.4124 16.1051H86.125V7.86035H87.4124V16.1051Z" fill="white"/>
<path d="M94.9975 13.2325C94.9975 14.1017 94.743 14.8138 94.2339 15.3725C93.7003 15.9468 92.992 16.2333 92.1103 16.2333C91.2582 16.2333 90.5807 15.9588 90.0765 15.4073C89.5724 14.857 89.3203 14.1628 89.3203 13.326C89.3203 12.4508 89.5798 11.7327 90.1011 11.1752C90.6225 10.6177 91.3234 10.3384 92.205 10.3384C93.0572 10.3384 93.7396 10.6129 94.2585 11.1632C94.7504 11.6979 94.9975 12.3885 94.9975 13.2325ZM93.6597 13.2733C93.6597 12.7517 93.5441 12.3046 93.3142 11.9317C93.0449 11.4809 92.6588 11.2555 92.1595 11.2555C91.6406 11.2555 91.2471 11.4809 90.9779 11.9317C90.7467 12.3046 90.6323 12.7589 90.6323 13.296C90.6323 13.8176 90.7479 14.2647 90.9779 14.6376C91.257 15.0884 91.6455 15.3138 92.1472 15.3138C92.6391 15.3138 93.024 15.0848 93.3019 14.6256C93.5416 14.2456 93.6597 13.7948 93.6597 13.2733Z" fill="white"/>
<path d="M101.235 16.105H100.078L99.9822 15.454H99.9466C99.5506 15.9732 98.9862 16.2333 98.2534 16.2333C97.7062 16.2333 97.2635 16.0619 96.9303 15.7214C96.6278 15.4121 96.4766 15.0272 96.4766 14.5705C96.4766 13.8799 96.7717 13.3536 97.3656 12.9891C97.9583 12.6247 98.792 12.446 99.8654 12.4544V12.3489C99.8654 11.6044 99.4646 11.2328 98.6616 11.2328C98.0898 11.2328 97.5857 11.373 97.1504 11.6512L96.8885 10.8263C97.4271 10.5014 98.0923 10.3384 98.8768 10.3384C100.392 10.3384 101.152 11.1177 101.152 12.6762V14.7575C101.152 15.3222 101.18 15.7717 101.235 16.105ZM99.8974 14.1628V13.2912C98.4759 13.2673 97.7652 13.6473 97.7652 14.4302C97.7652 14.7251 97.8464 14.9457 98.0124 15.0932C98.1784 15.2406 98.3899 15.3138 98.6419 15.3138C98.9248 15.3138 99.1891 15.2262 99.4301 15.0524C99.6724 14.8774 99.8211 14.6556 99.8765 14.3834C99.89 14.3223 99.8974 14.248 99.8974 14.1628Z" fill="white"/>
<path d="M108.557 16.1049H107.413L107.353 15.1973H107.317C106.952 15.8879 106.33 16.2331 105.456 16.2331C104.757 16.2331 104.176 15.9658 103.714 15.4311C103.253 14.8964 103.023 14.2022 103.023 13.3498C103.023 12.4351 103.273 11.6942 103.775 11.1283C104.26 10.6008 104.856 10.337 105.564 10.337C106.342 10.337 106.887 10.5924 107.197 11.1043H107.221V7.86011H108.511V14.5823C108.511 15.1326 108.526 15.6397 108.557 16.1049ZM107.221 13.7215V12.7791C107.221 12.6161 107.209 12.4842 107.186 12.3835C107.113 12.0814 106.957 11.8272 106.72 11.6222C106.48 11.4172 106.191 11.3141 105.858 11.3141C105.377 11.3141 105.001 11.4999 104.724 11.8728C104.45 12.2456 104.311 12.7216 104.311 13.3031C104.311 13.8617 104.442 14.3149 104.707 14.6638C104.986 15.0355 105.362 15.2213 105.833 15.2213C106.256 15.2213 106.594 15.0666 106.851 14.7561C107.1 14.4696 107.221 14.1243 107.221 13.7215Z" fill="white"/>
<path d="M119.58 13.2323C119.58 14.1014 119.325 14.8136 118.816 15.3723C118.282 15.9465 117.576 16.2331 116.692 16.2331C115.843 16.2331 115.165 15.9585 114.659 15.407C114.154 14.8567 113.902 14.1626 113.902 13.3258C113.902 12.4506 114.162 11.7324 114.683 11.175C115.205 10.6175 115.905 10.3381 116.79 10.3381C117.639 10.3381 118.324 10.6127 118.841 11.163C119.332 11.6977 119.58 12.3882 119.58 13.2323ZM118.244 13.273C118.244 12.7515 118.129 12.3043 117.899 11.9315C117.627 11.4807 117.243 11.2553 116.742 11.2553C116.225 11.2553 115.832 11.4807 115.56 11.9315C115.329 12.3043 115.214 12.7587 115.214 13.2958C115.214 13.8173 115.33 14.2645 115.56 14.6373C115.839 15.0881 116.228 15.3135 116.729 15.3135C117.221 15.3135 117.608 15.0845 117.886 14.6254C118.124 14.2453 118.244 13.7945 118.244 13.273Z" fill="white"/>
<path d="M126.509 16.105H125.222V12.868C125.222 11.8705 124.833 11.3718 124.052 11.3718C123.67 11.3718 123.361 11.5084 123.123 11.783C122.884 12.0575 122.765 12.3812 122.765 12.7517V16.1038H121.475V12.0683C121.475 11.572 121.46 11.0337 121.43 10.451H122.561L122.621 11.3346H122.657C122.808 11.06 123.032 10.8335 123.325 10.6524C123.675 10.4414 124.065 10.3347 124.494 10.3347C125.034 10.3347 125.484 10.505 125.842 10.8466C126.288 11.2651 126.509 11.8897 126.509 12.7193V16.105Z" fill="white"/>
<path d="M135.181 11.3948H133.762V14.1402C133.762 14.838 134.014 15.1869 134.513 15.1869C134.744 15.1869 134.936 15.1677 135.087 15.1281L135.12 16.0812C134.866 16.1747 134.531 16.2215 134.119 16.2215C133.61 16.2215 133.214 16.0704 132.928 15.7683C132.64 15.4662 132.498 14.9579 132.498 14.2445V11.3948H131.65V10.4536H132.498V9.4178L133.76 9.04614V10.4524H135.179V11.3948H135.181Z" fill="white"/>
<path d="M142.003 16.1049H140.713V12.8918C140.713 11.8788 140.324 11.3717 139.546 11.3717C138.948 11.3717 138.54 11.6654 138.316 12.2528C138.278 12.3763 138.256 12.5274 138.256 12.7048V16.1037H136.969V7.86011H138.256V11.2662H138.281C138.687 10.6463 139.268 10.337 140.022 10.337C140.556 10.337 140.997 10.5073 141.347 10.8489C141.784 11.2745 142.003 11.9076 142.003 12.7444V16.1049Z" fill="white"/>
<path d="M149.04 13.0117C149.04 13.2371 149.023 13.4265 148.992 13.5812H145.127C145.145 14.1399 145.329 14.5655 145.687 14.8604C146.014 15.1241 146.436 15.256 146.952 15.256C147.524 15.256 148.045 15.1673 148.515 14.9887L148.717 15.8615C148.167 16.094 147.52 16.2103 146.771 16.2103C145.874 16.2103 145.167 15.9526 144.655 15.4371C144.141 14.9215 143.887 14.2298 143.887 13.3618C143.887 12.5094 144.124 11.7996 144.602 11.2338C145.102 10.6295 145.777 10.3274 146.629 10.3274C147.462 10.3274 148.096 10.6295 148.524 11.2338C148.869 11.7133 149.04 12.3068 149.04 13.0117ZM147.81 12.6868C147.82 12.314 147.735 11.9926 147.561 11.7217C147.337 11.3728 146.996 11.1978 146.535 11.1978C146.115 11.1978 145.772 11.368 145.51 11.7097C145.296 11.9819 145.169 12.3068 145.127 12.6868H147.81Z" fill="white"/>
</svg>
