<svg xmlns="http://www.w3.org/2000/svg" width="23" height="22" viewBox="0 0 23 22">
  <g id="icon_cart_" data-name="icon (cart)" transform="translate(0 -9.846)">
    <g id="Сгруппировать_15" data-name="Сгруппировать 15" transform="translate(0 9.846)">
      <g id="Сгруппировать_14" data-name="Сгруппировать 14" transform="translate(0 0)">
        <path id="Контур_23" data-name="Контур 23" d="M22.855,12.734a.665.665,0,0,0-.518-.248H4.679l-.494-2.128a.663.663,0,0,0-.646-.512H.663a.66.66,0,1,0,0,1.32H3.011L6.362,25.614a.663.663,0,0,0,.646.512H20.3a.66.66,0,1,0,0-1.32H7.537l-.51-2.2h13.32a.663.663,0,0,0,.647-.515l1.99-8.8A.657.657,0,0,0,22.855,12.734Zm-3.039,8.552H6.72l-1.735-7.48H21.507Z" transform="translate(0 -9.846)" fill="#c3000e"/>
      </g>
    </g>
    <g id="Сгруппировать_17" data-name="Сгруппировать 17" transform="translate(7.308 27.006)">
      <g id="Сгруппировать_16" data-name="Сгруппировать 16">
        <path id="Контур_24" data-name="Контур 24" d="M164.881,393.846a2.42,2.42,0,1,0,2.42,2.42A2.423,2.423,0,0,0,164.881,393.846Zm0,3.52a1.1,1.1,0,1,1,1.1-1.1A1.1,1.1,0,0,1,164.881,397.366Z" transform="translate(-162.461 -393.846)" fill="#c3000e"/>
      </g>
    </g>
    <g id="Сгруппировать_19" data-name="Сгруппировать 19" transform="translate(15.3 27.006)">
      <g id="Сгруппировать_18" data-name="Сгруппировать 18">
        <path id="Контур_25" data-name="Контур 25" d="M342.112,393.846a2.42,2.42,0,1,0,2.42,2.42A2.423,2.423,0,0,0,342.112,393.846Zm0,3.52a1.1,1.1,0,1,1,1.1-1.1A1.1,1.1,0,0,1,342.112,397.366Z" transform="translate(-339.692 -393.846)" fill="#c3000e"/>
      </g>
    </g>
  </g>
</svg>
