<svg width="24" height="25" viewBox="0 0 24 25" fill="none" xmlns="http://www.w3.org/2000/svg">
<path d="M4.99945 21.5002H18.9994M11.5614 3.76617C11.6046 3.68777 11.668 3.6224 11.7451 3.57687C11.8221 3.53134 11.91 3.50732 11.9994 3.50732C12.0889 3.50732 12.1768 3.53134 12.2538 3.57687C12.3309 3.6224 12.3943 3.68777 12.4374 3.76617L15.3894 9.37017C15.4598 9.49993 15.5581 9.6125 15.6772 9.69979C15.7962 9.78708 15.9331 9.84692 16.078 9.87503C16.223 9.90313 16.3723 9.8988 16.5154 9.86235C16.6584 9.82589 16.7916 9.75821 16.9054 9.66417L21.1824 6.00017C21.2646 5.93339 21.3657 5.89439 21.4714 5.88877C21.5771 5.88315 21.6818 5.91121 21.7705 5.96891C21.8593 6.02662 21.9274 6.11098 21.9651 6.20986C22.0028 6.30874 22.0082 6.41704 21.9804 6.51917L19.1464 16.7652C19.0886 16.9748 18.964 17.1599 18.7915 17.2924C18.6189 17.4248 18.4079 17.4974 18.1904 17.4992H5.80945C5.59178 17.4977 5.38056 17.4252 5.20784 17.2927C5.03512 17.1602 4.91034 16.975 4.85245 16.7652L2.01945 6.52017C1.9917 6.41804 1.99707 6.30974 2.03479 6.21086C2.07251 6.11198 2.14063 6.02761 2.22935 5.96991C2.31807 5.91221 2.42281 5.88415 2.52849 5.88977C2.63417 5.89539 2.73534 5.93439 2.81745 6.00117L7.09345 9.66517C7.20725 9.75921 7.34046 9.82689 7.48351 9.86335C7.62657 9.8998 7.77592 9.90413 7.92085 9.87603C8.06578 9.84792 8.20268 9.78808 8.32174 9.70079C8.4408 9.6135 8.53905 9.50093 8.60945 9.37117L11.5614 3.76617Z" stroke="#C3000E" stroke-width="2" stroke-linecap="round" stroke-linejoin="round"/>
</svg>
