<svg width="32" height="32" viewBox="0 0 32 32" fill="none" xmlns="http://www.w3.org/2000/svg">
<path d="M18.8267 13.3334H25.3333V10.9334H20.5067L17.84 6.49339C17.44 5.82672 16.72 5.37339 15.8933 5.37339C15.6533 5.37339 15.44 5.41339 15.2267 5.48006L8 7.73339V14.6667H10.4V9.77339L13.2133 8.89339L8 29.3334H10.4L14.2267 18.5201L17.3333 22.6667V29.3334H19.7333V20.7867L16.4133 14.7334L17.3867 10.9067M18.6667 5.06672C20 5.06672 21.0667 4.00006 21.0667 2.66672C21.0667 1.33339 20 0.266724 18.6667 0.266724C17.3333 0.266724 16.2667 1.33339 16.2667 2.66672C16.2667 4.00006 17.3333 5.06672 18.6667 5.06672Z" fill="#BF98D9"/>
</svg>
