<svg width="32" height="32" viewBox="0 0 32 32" fill="none" xmlns="http://www.w3.org/2000/svg">
<g clip-path="url(#clip0_373_203)">
<path d="M4.0026 18.0002L3.0026 16.0002H10.0026L9.2026 14.0002H2.66927L1.66927 12.0002H12.0693L11.2693 10.0002H1.4826L0.335938 8.00016H5.33594C5.33594 7.29292 5.61689 6.61464 6.11699 6.11454C6.61708 5.61445 7.29536 5.3335 8.0026 5.3335H24.0026V10.6668H28.0026L32.0026 16.0002V22.6668H29.3359C29.3359 23.7277 28.9145 24.7451 28.1644 25.4953C27.4142 26.2454 26.3968 26.6668 25.3359 26.6668C24.2751 26.6668 23.2577 26.2454 22.5075 25.4953C21.7574 24.7451 21.3359 23.7277 21.3359 22.6668H16.0026C16.0026 23.7277 15.5812 24.7451 14.831 25.4953C14.0809 26.2454 13.0635 26.6668 12.0026 26.6668C10.9417 26.6668 9.92432 26.2454 9.17418 25.4953C8.42403 24.7451 8.0026 23.7277 8.0026 22.6668H5.33594V18.0002H4.0026ZM25.3359 24.6668C25.8664 24.6668 26.3751 24.4561 26.7501 24.081C27.1252 23.706 27.3359 23.1973 27.3359 22.6668C27.3359 22.1364 27.1252 21.6277 26.7501 21.2526C26.3751 20.8775 25.8664 20.6668 25.3359 20.6668C24.8055 20.6668 24.2968 20.8775 23.9217 21.2526C23.5466 21.6277 23.3359 22.1364 23.3359 22.6668C23.3359 23.1973 23.5466 23.706 23.9217 24.081C24.2968 24.4561 24.8055 24.6668 25.3359 24.6668ZM27.3359 12.6668H24.0026V16.0002H29.9493L27.3359 12.6668ZM12.0026 24.6668C12.533 24.6668 13.0417 24.4561 13.4168 24.081C13.7919 23.706 14.0026 23.1973 14.0026 22.6668C14.0026 22.1364 13.7919 21.6277 13.4168 21.2526C13.0417 20.8775 12.533 20.6668 12.0026 20.6668C11.4722 20.6668 10.9635 20.8775 10.5884 21.2526C10.2133 21.6277 10.0026 22.1364 10.0026 22.6668C10.0026 23.1973 10.2133 23.706 10.5884 24.081C10.9635 24.4561 11.4722 24.6668 12.0026 24.6668Z" fill="#D0A35C"/>
</g>
<defs>
<clipPath id="clip0_373_203">
<rect width="32" height="32" fill="white"/>
</clipPath>
</defs>
</svg>
