<svg width="32" height="32" viewBox="0 0 32 32" fill="none" xmlns="http://www.w3.org/2000/svg">
<path d="M17.5031 1.5C17.5031 0.66875 16.8344 0 16.0031 0C15.1719 0 14.5031 0.66875 14.5031 1.5V6.5C14.5031 7.33125 15.1719 8 16.0031 8C16.8344 8 17.5031 7.33125 17.5031 6.5V1.5ZM11.6156 14H20.3844C20.8094 14 21.1844 14.2688 21.3281 14.6625L22.5219 18H9.48438L10.6781 14.6625C10.8219 14.2625 11.1969 14 11.6219 14H11.6156ZM6.90938 13.3188L5.14062 18.275C3.88437 18.8062 3.00312 20.05 3.00312 21.5V30C3.00312 31.1063 3.89687 32 5.00312 32H6.00313C7.10938 32 8.00313 31.1063 8.00313 30V28H24.0031V30C24.0031 31.1063 24.8969 32 26.0031 32H27.0031C28.1094 32 29.0031 31.1063 29.0031 30V21.5C29.0031 20.05 28.1219 18.8062 26.8656 18.275L25.0969 13.3188C24.3844 11.3313 22.5031 10 20.3906 10H11.6219C9.50937 10 7.62188 11.3313 6.91563 13.3188H6.90938ZM8.00313 21.5C8.40095 21.5 8.78248 21.658 9.06379 21.9393C9.34509 22.2206 9.50313 22.6022 9.50313 23C9.50313 23.3978 9.34509 23.7794 9.06379 24.0607C8.78248 24.342 8.40095 24.5 8.00313 24.5C7.6053 24.5 7.22377 24.342 6.94246 24.0607C6.66116 23.7794 6.50313 23.3978 6.50313 23C6.50313 22.6022 6.66116 22.2206 6.94246 21.9393C7.22377 21.658 7.6053 21.5 8.00313 21.5ZM22.5031 23C22.5031 22.6022 22.6612 22.2206 22.9425 21.9393C23.2238 21.658 23.6053 21.5 24.0031 21.5C24.4009 21.5 24.7825 21.658 25.0638 21.9393C25.3451 22.2206 25.5031 22.6022 25.5031 23C25.5031 23.3978 25.3451 23.7794 25.0638 24.0607C24.7825 24.342 24.4009 24.5 24.0031 24.5C23.6053 24.5 23.2238 24.342 22.9425 24.0607C22.6612 23.7794 22.5031 23.3978 22.5031 23ZM2.44062 2.4375C1.85313 3.025 1.85313 3.975 2.44062 4.55625L5.44062 7.55625C6.02812 8.14375 6.97813 8.14375 7.55938 7.55625C8.14063 6.96875 8.14688 6.01875 7.55938 5.4375L4.56562 2.4375C3.97812 1.85 3.02812 1.85 2.44687 2.4375H2.44062ZM27.4406 2.4375L24.4406 5.4375C23.8531 6.025 23.8531 6.975 24.4406 7.55625C25.0281 8.1375 25.9781 8.14375 26.5594 7.55625L29.5594 4.55625C30.1469 3.96875 30.1469 3.01875 29.5594 2.4375C28.9719 1.85625 28.0219 1.85 27.4406 2.4375Z" fill="#0470C4"/>
</svg>
