<svg width="204" height="30" viewBox="0 0 204 30" fill="none" xmlns="http://www.w3.org/2000/svg">
<path d="M11.5937 9.44988V5.74976H0V25.2371H11.5937V21.7836H3.70012V17.3435H11.1004V13.89H3.70012V9.44988H11.5937Z" fill="white"/>
<path d="M18.0073 5.74976H14.5538V25.2371H18.0073V5.74976Z" fill="white"/>
<path d="M43.1681 5.99643H39.468V25.2371H43.1681V19.0702L48.1016 25.2371H53.7751L47.1149 17.8368L52.5417 10.9299H48.1016L43.1681 17.0968V5.99643Z" fill="white"/>
<path d="M56.4885 5.99643V10.9299H54.7618V13.89H56.4885V25.2371H60.1886V13.89H62.162V10.9299H60.1886V5.99643H56.4885Z" fill="white"/>
<path d="M67.5889 10.9299H64.1354V25.2371H68.3289V16.3568C68.5262 14.3834 70.8779 13.89 72.029 13.89V10.9299C69.6609 10.5352 68.0822 11.9166 67.5889 12.6566V10.9299Z" fill="white"/>
<path d="M111.744 10.9299H108.29V25.4837H112.484V16.1101C113.47 12.9033 118.157 12.9033 118.897 16.1101V25.4837H122.597V15.1234C121.611 8.70985 112.237 9.94323 111.744 12.9033V10.9299Z" fill="white"/>
<path d="M129.504 10.9299H125.557V25.4837H129.504V10.9299Z" fill="white"/>
<path d="M125.557 9.44988V5.74976H129.504V9.44988H125.557Z" fill="white"/>
<path d="M133.204 25.4837V5.74976H137.151V16.8501L141.838 10.9299H146.525L140.851 17.5901L148.005 25.4837H142.825L137.151 19.0702V25.4837H133.204Z" fill="white"/>
<path d="M169.712 21.7836H166.012V25.2371H169.712V21.7836Z" fill="white"/>
<path d="M173.412 5.99643V10.9299H171.686V13.6433H173.412V25.2371H177.112V13.6433H179.333V10.9299H177.112V5.99643H173.412Z" fill="white"/>
<path d="M184.513 10.9299H181.306V25.2371H184.513V16.3568C184.513 13.15 190.926 12.41 190.926 16.3568V25.2371H194.626V16.3568C194.873 13.15 200.053 12.41 200.547 16.3568V25.2371H204V14.3834C203.013 9.64722 194.38 9.69655 193.146 13.15C191.913 9.69655 185.253 10.4366 184.513 12.41V10.9299Z" fill="white"/>
<path fill-rule="evenodd" clip-rule="evenodd" d="M25.1608 19.5635H37.4946C37.9879 6.48978 19.3393 8.31517 20.7207 19.5635C21.9541 25.2371 34.0411 28.1972 37.0012 20.7969H32.5611C31.3277 22.7703 26.5422 22.129 25.1608 19.5635ZM34.0411 16.6034H25.1608C25.4075 15.1234 27.6276 13.89 29.601 13.89C31.081 13.89 33.0544 14.8767 34.0411 16.6034Z" fill="white"/>
<path fill-rule="evenodd" clip-rule="evenodd" d="M159.599 12.41V10.9299H163.299V25.4837H159.599V22.7703C155.898 28.1972 146.525 24.497 146.525 17.5901C146.525 11.1766 155.158 8.46318 159.599 12.41ZM154.912 13.6433C160.092 13.3967 161.819 21.7836 154.912 22.0303C149.238 22.0303 149.238 13.9135 154.912 13.6433Z" fill="white"/>
<path fill-rule="evenodd" clip-rule="evenodd" d="M77.2091 0.56958H102.123C102.781 0.73403 104.097 1.45761 104.097 3.03633V26.9638C104.097 27.786 103.702 29.4305 102.123 29.4305H77.2091C76.6336 29.4305 75.4824 28.9372 75.4824 26.9638V3.03633C75.4824 2.21408 75.8278 0.56958 77.2091 0.56958ZM86.8295 11.9166V8.95652C79.1332 11.3246 80.1692 25.2371 90.2829 24.9904C99.3605 24.9904 101.137 11.4233 93.243 8.95652V11.9166C97.1898 15.1234 94.9697 22.0303 89.7896 22.0303C83.4716 22.0303 82.636 14.1367 86.8295 11.9166ZM88.3095 12.6566V4.76305H91.5163V12.6566H88.3095Z" fill="#C3000E"/>
<path d="M86.8295 8.95652V11.9166C82.636 14.1367 83.4716 22.0303 89.7896 22.0303C94.9697 22.0303 97.1898 15.1234 93.243 11.9166V8.95652C101.137 11.4233 99.3605 24.9904 90.2829 24.9904C80.1692 25.2371 79.1332 11.3246 86.8295 8.95652Z" fill="white"/>
<path d="M88.3095 4.76305V12.6566H91.5163V4.76305H88.3095Z" fill="white"/>
</svg>
