<svg width="166" height="49" viewBox="0 0 166 49" fill="none" xmlns="http://www.w3.org/2000/svg">
<path d="M159.632 48.9111H6.1397C2.7644 48.9111 0 46.2121 0 42.9167V6.95002C0 3.65458 2.7644 0.95558 6.1397 0.95558H159.632C163.007 0.95558 165.772 3.65458 165.772 6.95002V42.9167C165.772 46.2121 163.007 48.9111 159.632 48.9111Z" fill="#2D2D2D"/>
<path d="M159.632 1.91619C162.475 1.91619 164.788 4.17459 164.788 6.95002V42.9167C164.788 45.6921 162.475 47.9505 159.632 47.9505H6.1397C3.29702 47.9505 0.983886 45.6921 0.983886 42.9167V6.95002C0.983886 4.17459 3.29702 1.91619 6.1397 1.91619H159.632ZM159.632 0.95558H6.1397C2.7644 0.95558 0 3.65458 0 6.95002V42.9167C0 46.2121 2.7644 48.9111 6.1397 48.9111H159.632C163.007 48.9111 165.772 46.2121 165.772 42.9167V6.95002C165.772 3.65458 163.007 0.95558 159.632 0.95558Z" fill="#A6A6A6"/>
<path d="M58.2267 13.2368C58.2267 14.2379 57.9198 15.0396 57.315 15.6376C56.6197 16.3464 55.7141 16.7031 54.6043 16.7031C53.5437 16.7031 52.6381 16.3404 51.8952 15.6256C51.1507 14.9002 50.7793 14.0101 50.7793 12.9446C50.7793 11.879 51.1507 10.9889 51.8952 10.2695C52.6381 9.5487 53.5437 9.18604 54.6043 9.18604C55.1323 9.18604 55.6358 9.29244 56.1162 9.49025C56.5951 9.68957 56.985 9.95932 57.2674 10.292L56.6258 10.9244C56.1331 10.3565 55.4624 10.0762 54.6043 10.0762C53.8307 10.0762 53.16 10.34 52.5905 10.872C52.0272 11.4055 51.7448 12.0963 51.7448 12.9446C51.7448 13.7928 52.0272 14.4896 52.5905 15.0231C53.16 15.5491 53.8307 15.8189 54.6043 15.8189C55.4255 15.8189 56.1162 15.5491 56.6611 15.0171C57.0203 14.665 57.2244 14.1794 57.2782 13.559H54.6043V12.6928H58.1715C58.2145 12.8801 58.2267 13.0614 58.2267 13.2368Z" fill="white" stroke="white" stroke-width="0.147556" stroke-miterlimit="10"/>
<path d="M63.8853 10.2335H60.5345V12.5114H63.5553V13.3776H60.5345V15.6555H63.8853V16.5382H59.5859V9.35083H63.8853V10.2335Z" fill="white" stroke="white" stroke-width="0.147556" stroke-miterlimit="10"/>
<path d="M67.8769 16.5384H66.9283V10.2338H64.873V9.35107H69.9337V10.2338H67.8769V16.5384Z" fill="white" stroke="white" stroke-width="0.147556" stroke-miterlimit="10"/>
<path d="M73.5977 16.5382V9.35083H74.5447V16.5382H73.5977Z" fill="white" stroke="white" stroke-width="0.147556" stroke-miterlimit="10"/>
<path d="M78.7421 16.5382H77.8012V10.2335H75.7383V9.35083H80.8051V10.2335H78.7421V16.5382Z" fill="white" stroke="white" stroke-width="0.147556" stroke-miterlimit="10"/>
<path d="M90.3866 15.6136C89.6605 16.3404 88.7611 16.7031 87.6882 16.7031C86.6091 16.7031 85.7096 16.3404 84.9836 15.6136C84.2591 14.8882 83.8984 13.9981 83.8984 12.9446C83.8984 11.891 84.2591 11.0009 84.9836 10.2755C85.7096 9.5487 86.6091 9.18604 87.6882 9.18604C88.7549 9.18604 89.6544 9.5487 90.3804 10.2815C91.1111 11.0128 91.4718 11.897 91.4718 12.9446C91.4718 13.9981 91.1111 14.8882 90.3866 15.6136ZM85.6851 15.0111C86.2315 15.5491 86.8961 15.8189 87.6882 15.8189C88.474 15.8189 89.1448 15.5491 89.6851 15.0111C90.23 14.4731 90.5063 13.7823 90.5063 12.9446C90.5063 12.1068 90.23 11.416 89.6851 10.878C89.1448 10.34 88.474 10.0702 87.6882 10.0702C86.8961 10.0702 86.2315 10.34 85.6851 10.878C85.1402 11.416 84.8639 12.1068 84.8639 12.9446C84.8639 13.7823 85.1402 14.4731 85.6851 15.0111Z" fill="white" stroke="white" stroke-width="0.147556" stroke-miterlimit="10"/>
<path d="M92.8008 16.5384V9.35107H93.952L97.5314 14.9409H97.5729L97.5314 13.5592V9.35107H98.4785V16.5384H97.49L93.7417 10.6728H93.7002L93.7417 12.0606V16.5384H92.8008Z" fill="white" stroke="white" stroke-width="0.147556" stroke-miterlimit="10"/>
<path d="M83.6655 27.0345C80.7814 27.0345 78.4253 29.1775 78.4253 32.1343C78.4253 35.067 80.7814 37.2325 83.6655 37.2325C86.5558 37.2325 88.9119 35.067 88.9119 32.1343C88.9119 29.1775 86.5558 27.0345 83.6655 27.0345ZM83.6655 35.2244C82.083 35.2244 80.7216 33.9491 80.7216 32.1343C80.7216 30.2955 82.083 29.0426 83.6655 29.0426C85.248 29.0426 86.6157 30.2955 86.6157 32.1343C86.6157 33.9491 85.248 35.2244 83.6655 35.2244ZM72.2319 27.0345C69.3416 27.0345 66.9917 29.1775 66.9917 32.1343C66.9917 35.067 69.3416 37.2325 72.2319 37.2325C75.1206 37.2325 77.4721 35.067 77.4721 32.1343C77.4721 29.1775 75.1206 27.0345 72.2319 27.0345ZM72.2319 35.2244C70.6478 35.2244 69.2818 33.9491 69.2818 32.1343C69.2818 30.2955 70.6478 29.0426 72.2319 29.0426C73.8144 29.0426 75.1759 30.2955 75.1759 32.1343C75.1759 33.9491 73.8144 35.2244 72.2319 35.2244ZM58.6263 28.5975V30.7645H63.9264C63.7714 31.9754 63.357 32.8656 62.7215 33.486C61.9479 34.2353 60.743 35.067 58.6263 35.067C55.3646 35.067 52.8105 32.4969 52.8105 29.3124C52.8105 26.1278 55.3646 23.5577 58.6263 23.5577C60.39 23.5577 61.6732 24.2306 62.6202 25.1028L64.1843 23.5757C62.8596 22.3408 61.0976 21.3922 58.6263 21.3922C54.1536 21.3922 50.3945 24.9454 50.3945 29.3124C50.3945 33.6793 54.1536 37.2325 58.6263 37.2325C61.0438 37.2325 62.8596 36.4593 64.2871 35.0086C65.7499 33.5804 66.2058 31.5723 66.2058 29.9508C66.2058 29.4473 66.1628 28.9842 66.0861 28.5975H58.6263ZM114.261 30.2775C113.83 29.137 112.499 27.0345 109.788 27.0345C107.102 27.0345 104.866 29.1011 104.866 32.1343C104.866 34.9906 107.079 37.2325 110.046 37.2325C112.445 37.2325 113.83 35.8044 114.399 34.9726L112.619 33.8142C112.025 34.6624 111.216 35.2244 110.046 35.2244C108.884 35.2244 108.051 34.7044 107.517 33.6793L114.502 30.8574L114.261 30.2775ZM107.139 31.9754C107.079 30.0092 108.703 29.0022 109.867 29.0022C110.778 29.0022 111.552 29.4473 111.81 30.0842L107.139 31.9754ZM101.461 36.9223H103.758V21.9362H101.461V36.9223ZM97.7009 28.1704H97.6241C97.1084 27.574 96.1245 27.0345 94.8782 27.0345C92.2627 27.0345 89.8712 29.2764 89.8712 32.1507C89.8712 35.0086 92.2627 37.2325 94.8782 37.2325C96.1245 37.2325 97.1084 36.6885 97.6241 36.0741H97.7009V36.8054C97.7009 38.7551 96.6341 39.8027 94.9135 39.8027C93.5105 39.8027 92.6402 38.8136 92.2811 37.9818L90.2841 38.7956C90.8597 40.1473 92.3839 41.8108 94.9135 41.8108C97.6057 41.8108 99.8774 40.2642 99.8774 36.5012V27.3447H97.7009V28.1704ZM95.0746 35.2244C93.4921 35.2244 92.1675 33.9311 92.1675 32.1507C92.1675 30.3539 93.4921 29.0426 95.0746 29.0426C96.6341 29.0426 97.8636 30.3539 97.8636 32.1507C97.8636 33.9311 96.6341 35.2244 95.0746 35.2244ZM125.012 21.9362H119.52V36.9223H121.81V31.2441H125.012C127.555 31.2441 130.049 29.4473 130.049 26.5894C130.049 23.733 127.549 21.9362 125.012 21.9362ZM125.072 29.1595H121.81V24.0208H125.072C126.782 24.0208 127.758 25.407 127.758 26.5894C127.758 27.7493 126.782 29.1595 125.072 29.1595ZM139.228 27.006C137.574 27.006 135.853 27.7194 135.145 29.3004L137.178 30.1321C137.615 29.3004 138.419 29.0306 139.27 29.0306C140.458 29.0306 141.663 29.7275 141.681 30.9579V31.1152C141.267 30.8814 140.379 30.5352 139.288 30.5352C137.099 30.5352 134.869 31.7117 134.869 33.9071C134.869 35.9153 136.662 37.2086 138.677 37.2086C140.218 37.2086 141.069 36.5297 141.603 35.7399H141.681V36.8983H143.893V31.1497C143.893 28.4926 141.861 27.006 139.228 27.006ZM138.952 35.2184C138.203 35.2184 137.159 34.8557 137.159 33.9491C137.159 32.7892 138.461 32.3441 139.587 32.3441C140.596 32.3441 141.069 32.5614 141.681 32.8476C141.501 34.2353 140.278 35.2184 138.952 35.2184ZM151.951 27.3342L149.319 33.8307H149.241L146.519 27.3342H144.049L148.138 36.4128L145.805 41.4646H148.198L154.499 27.3342H151.951ZM131.308 36.9223H133.604V21.9362H131.308V36.9223Z" fill="white"/>
<path d="M12.8155 9.99422C12.4548 10.3629 12.2461 10.9368 12.2461 11.6802V38.1936C12.2461 38.9369 12.4548 39.5109 12.8155 39.8795L12.9046 39.9604L28.1218 25.1092V24.7585L12.9046 9.9073L12.8155 9.99422Z" fill="url(#paint0_linear_272_627)"/>
<path d="M33.1859 30.0615L28.1191 25.1086V24.7579L33.1921 19.805L33.3056 19.8695L39.3133 23.2069C41.0279 24.154 41.0279 25.7126 39.3133 26.6657L33.3056 29.9971L33.1859 30.0615Z" fill="url(#paint1_linear_272_627)"/>
<path d="M33.3053 29.9975L28.1188 24.9337L12.8125 39.8793C13.382 40.4638 14.3106 40.5342 15.3666 39.9498L33.3053 29.9975Z" fill="url(#paint2_linear_272_627)"/>
<path d="M33.3053 19.8698L15.3666 9.91751C14.3106 9.33905 13.382 9.40948 12.8125 9.99394L28.1188 24.9336L33.3053 19.8698Z" fill="url(#paint3_linear_272_627)"/>
<defs>
<linearGradient id="paint0_linear_272_627" x1="26.7707" y1="38.4697" x2="6.65624" y2="17.8678" gradientUnits="userSpaceOnUse">
<stop stop-color="#00A0FF"/>
<stop offset="0.0066" stop-color="#00A1FF"/>
<stop offset="0.2601" stop-color="#00BEFF"/>
<stop offset="0.5122" stop-color="#00D2FF"/>
<stop offset="0.7604" stop-color="#00DFFF"/>
<stop offset="1" stop-color="#00E3FF"/>
</linearGradient>
<linearGradient id="paint1_linear_272_627" x1="41.5459" y1="24.9316" x2="11.8336" y2="24.9316" gradientUnits="userSpaceOnUse">
<stop stop-color="#FFE000"/>
<stop offset="0.4087" stop-color="#FFBD00"/>
<stop offset="0.7754" stop-color="#FFA500"/>
<stop offset="1" stop-color="#FF9C00"/>
</linearGradient>
<linearGradient id="paint2_linear_272_627" x1="30.485" y1="22.1809" x2="3.20815" y2="-5.75687" gradientUnits="userSpaceOnUse">
<stop stop-color="#FF3A44"/>
<stop offset="1" stop-color="#C31162"/>
</linearGradient>
<linearGradient id="paint3_linear_272_627" x1="8.9596" y1="48.7001" x2="21.1399" y2="36.2248" gradientUnits="userSpaceOnUse">
<stop stop-color="#32A071"/>
<stop offset="0.0685" stop-color="#2DA771"/>
<stop offset="0.4762" stop-color="#15CF74"/>
<stop offset="0.8009" stop-color="#06E775"/>
<stop offset="1" stop-color="#00F076"/>
</linearGradient>
</defs>
</svg>
