<svg width="32" height="32" viewBox="0 0 32 32" fill="none" xmlns="http://www.w3.org/2000/svg">
<path d="M26.6667 5.33337C27.3394 5.33316 27.9874 5.58725 28.4807 6.0447C28.974 6.50216 29.2762 7.12917 29.3267 7.80004L29.3333 8.00004V24C29.3335 24.6728 29.0795 25.3208 28.622 25.8141C28.1646 26.3074 27.5375 26.6096 26.8667 26.66L26.6667 26.6667H5.33333C4.66056 26.6669 4.01258 26.4128 3.51927 25.9554C3.02596 25.4979 2.72379 24.8709 2.67333 24.2L2.66667 24V22.6667H5.33333V24H26.6667V9.88537L17.4133 19.1387C17.0633 19.4887 16.596 19.6964 16.1017 19.7218C15.6074 19.7471 15.1213 19.5883 14.7373 19.276L14.5853 19.1387L5.33333 9.88537V10.6667H2.66667V8.00004C2.66645 7.32727 2.92054 6.67929 3.378 6.18598C3.83545 5.69267 4.46246 5.3905 5.13333 5.34004L5.33333 5.33337H26.6667ZM8 17.3334C8.35362 17.3334 8.69276 17.4739 8.94281 17.7239C9.19286 17.9739 9.33333 18.3131 9.33333 18.6667C9.33333 19.0203 9.19286 19.3595 8.94281 19.6095C8.69276 19.8596 8.35362 20 8 20H1.33333C0.979711 20 0.640573 19.8596 0.390524 19.6095C0.140476 19.3595 0 19.0203 0 18.6667C0 18.3131 0.140476 17.9739 0.390524 17.7239C0.640573 17.4739 0.979711 17.3334 1.33333 17.3334H8ZM24.7813 8.00004H7.21867L16 16.7814L24.7813 8.00004ZM6.66667 13.3334C7.00651 13.3338 7.33338 13.4639 7.58049 13.6972C7.82761 13.9305 7.97631 14.2493 7.99623 14.5886C8.01615 14.9278 7.90577 15.2619 7.68765 15.5225C7.46953 15.7831 7.16013 15.9506 6.82267 15.9907L6.66667 16H2.66667C2.32683 15.9997 1.99996 15.8695 1.75284 15.6362C1.50573 15.403 1.35702 15.0841 1.3371 14.7448C1.31719 14.4056 1.42757 14.0715 1.64569 13.8109C1.86381 13.5503 2.17321 13.3828 2.51067 13.3427L2.66667 13.3334H6.66667Z" fill="#86BF93"/>
</svg>
