<svg width="48" height="34" viewBox="0 0 48 34" fill="none" xmlns="http://www.w3.org/2000/svg">
<path d="M39.569 1.65161C39.1144 2.71227 38.6977 3.84869 38.3189 5.06088C38.0158 6.1973 37.8264 7.33372 37.7507 8.47014C37.7507 9.53079 37.9401 10.5157 38.3189 11.4248C38.6977 12.2582 39.3796 12.9401 40.3645 13.4704C42.3342 14.531 44.001 15.8947 45.3647 17.5615C46.8042 19.1525 47.5239 21.1223 47.5239 23.4709C47.5239 24.9103 47.2587 26.2741 46.7284 27.562C46.1981 28.8499 45.4405 29.9864 44.4556 30.9713C43.5464 31.8804 42.4479 32.6001 41.1599 33.1305C39.872 33.6608 38.5083 33.9259 37.0688 33.9259C34.1899 33.9259 31.7655 32.9032 29.7957 30.8576C27.8259 28.8121 26.7653 26.3498 26.6138 23.4709C26.3865 20.4404 26.7653 17.6373 27.7502 15.0614C28.8108 12.4097 30.023 10.099 31.3867 8.12921C32.8262 6.15941 34.2278 4.56843 35.5915 3.35624C36.9552 2.0683 37.9022 1.23493 38.4325 0.856121C38.5841 0.931882 38.7735 1.04552 39.0007 1.19705L39.3417 1.53797C39.4174 1.61373 39.4932 1.65161 39.569 1.65161ZM13.4313 1.65161C12.9767 2.71227 12.56 3.84869 12.1812 5.06088C11.8782 6.1973 11.6888 7.33372 11.613 8.47014C11.613 9.53079 11.8024 10.5157 12.1812 11.4248C12.56 12.2582 13.2419 12.9401 14.2268 13.4704C16.1966 14.531 17.8633 15.8947 19.227 17.5615C20.6665 19.1525 21.3862 21.1223 21.3862 23.4709C21.3862 24.9103 21.1211 26.2741 20.5907 27.562C20.0604 28.8499 19.3028 29.9864 18.3179 30.9713C17.4088 31.8804 16.3102 32.6001 15.0223 33.1305C13.7343 33.6608 12.3706 33.9259 10.9312 33.9259C8.05224 33.9259 5.62788 32.9032 3.65808 30.8576C1.68829 28.8121 0.627626 26.3498 0.476104 23.4709C0.24882 20.4404 0.627626 17.6373 1.61252 15.0614C2.67318 12.4097 3.88536 10.099 5.24907 8.12921C6.68853 6.15941 8.09012 4.56843 9.45382 3.35624C10.8175 2.0683 11.7645 1.23493 12.2949 0.856121C12.4464 0.931882 12.6358 1.04552 12.8631 1.19705L13.204 1.53797C13.2798 1.61373 13.3555 1.65161 13.4313 1.65161Z" fill="#D2D2D2"/>
</svg>
